<svg xmlns="http://www.w3.org/2000/svg" viewBox="0 0 64 72" role="img" aria-label="哈特贝格 club identity"><path d="M32 3 58 12v25c0 16-10 26-26 32C16 63 6 53 6 37V12z" fill="#166534"/><path d="M32 8 53 16v20c0 12-8 21-21 27C19 57 11 48 11 36V16z" fill="#dcfce7"/><path d="M12 20h40v7H12z" fill="#166534" opacity=".9"/><circle cx="32" cy="27" r="8" fill="#fefce8" opacity=".92"/><path d="m32 22 3 4-1 5h-4l-1-5zm-10 35 5 3-2 6-5-1zm20 0 5 3-2 6-5-1z" fill="#dcfce7"/><text x="32" y="57" text-anchor="middle" fill="#fefce8" font-family="Arial,sans-serif" font-size="7" font-weight="700">T106</text></svg>